<?xml version="1.0" encoding="utf-8"?>
<!-- Generator: Adobe Illustrator 18.1.1, SVG Export Plug-In . SVG Version: 6.00 Build 0)  -->
<svg version="1.1" id="Layer_1" xmlns="http://www.w3.org/2000/svg" xmlns:xlink="http://www.w3.org/1999/xlink" x="0px" y="0px" width="15px" height="22px"
	 viewBox="0 0 369.7 547.2" style="enable-background:new 0 0 369.7 547.2;" xml:space="preserve">
<style type="text/css">
	.st0{opacity:0.15;filter:url(#AI_GaussianBlur_7);}
	.st1{fill:url(#SVGID_1_);}
	.st2{fill:none;stroke:#FFFFFF;stroke-width:20;stroke-miterlimit:10;}
</style>
<filter  id="AI_GaussianBlur_7">
	<feGaussianBlur  stdDeviation="7"></feGaussianBlur>
</filter>
<g class="st0">
	<ellipse cx="184.9" cy="491.7" rx="108.5" ry="46.3"/>
</g>
<g id="path3029">
	<linearGradient id="SVGID_1_" gradientUnits="userSpaceOnUse" x1="184.8571" y1="503.1864" x2="184.8571" y2="10">
		<stop  offset="0" style="stop-color:#387F3D"/>
		<stop  offset="1" style="stop-color:#7AC143"/>
	</linearGradient>
	<path class="st1" d="M359.7,184.9c0,24.8-3.8,45.2-11.3,61.1L224.1,478.9c-3.6,7.5-9.1,13.4-16.2,17.8s-14.9,6.5-23.1,6.5
		s-15.9-2.2-23.1-6.5s-12.5-10.2-15.9-17.8L21.3,246C13.8,230.1,10,209.7,10,184.9c0-48.3,17.1-89.5,51.2-123.6S136.6,10,184.9,10
		s89.5,17.1,123.6,51.2S359.7,136.6,359.7,184.9z"/>
	<path class="st2" d="M359.7,184.9c0,24.8-3.8,45.2-11.3,61.1L224.1,478.9c-3.6,7.5-9.1,13.4-16.2,17.8s-14.9,6.5-23.1,6.5
		s-15.9-2.2-23.1-6.5s-12.5-10.2-15.9-17.8L21.3,246C13.8,230.1,10,209.7,10,184.9c0-48.3,17.1-89.5,51.2-123.6S136.6,10,184.9,10
		s89.5,17.1,123.6,51.2S359.7,136.6,359.7,184.9z"/>
</g>
</svg>
